<svg width="399" height="399" viewBox="0 0 399 399" fill="none" xmlns="http://www.w3.org/2000/svg">
<mask id="mask0_252_24" style="mask-type:luminance" maskUnits="userSpaceOnUse" x="0" y="0" width="399" height="399">
<path d="M0 0H399V399H0V0Z" fill="white"/>
</mask>
<g mask="url(#mask0_252_24)">
<path d="M268.081 236.903L254.264 248.651C222.358 274.549 176.645 274.549 144.739 248.651L62.8943 182.232C37.224 161.401 37.224 122.259 62.8943 101.423L144.739 35.0038C176.645 9.10598 222.358 9.10598 254.264 35.0038L336.109 101.423C352.988 115.123 358.769 136.737 353.45 155.855" stroke="#25D366" stroke-width="30" stroke-linecap="round" stroke-linejoin="round"/>
</g>
<path d="M133.26 159.753L144.739 150.343C176.646 124.445 222.358 124.445 254.264 150.343L336.109 216.762C361.779 237.593 361.779 276.735 336.109 297.571L254.264 363.99C222.358 389.888 176.646 389.888 144.739 363.99L62.8945 297.571C47.3824 284.982 41.2396 265.7 44.4834 247.815" stroke="#005A5F" stroke-width="30" stroke-linecap="round"/>
</svg>
