<svg width="238" height="46" viewBox="0 0 238 46" fill="none" xmlns="http://www.w3.org/2000/svg">
<path d="M43.0423 42.1851C43.0423 43.9451 42.0339 44.8251 40.0173 44.8251C37.9273 44.8251 36.8823 43.9451 36.8823 42.1851V19.4151C36.8823 16.4084 37.7806 14.3184 39.5773 13.1451C41.3739 11.9718 43.4456 11.3851 45.7923 11.3851H52.0623C53.4189 11.3851 54.0973 12.2468 54.0973 13.9701C54.1706 15.6934 53.4923 16.5551 52.0623 16.5551H46.2323C44.9123 16.5551 44.0506 16.8118 43.6473 17.3251C43.2439 17.8384 43.0423 18.5534 43.0423 19.4701V42.1851ZM67.0528 44.4951C65.9161 44.4951 64.8344 44.3485 63.8078 44.0551C62.7811 43.7251 61.7911 43.2668 60.8378 42.6801V42.7351C59.0411 41.5985 58.1428 39.5085 58.1428 36.4651V33.7701C58.1428 32.2668 58.3994 30.9651 58.9128 29.8651C59.4628 28.7284 60.2144 27.8301 61.1678 27.1701H61.1128C62.0294 26.5468 63.0011 26.0884 64.0278 25.7951C65.0544 25.4651 66.0444 25.3001 66.9978 25.3001H79.1528V20.1851C79.1528 19.2684 78.8594 18.4434 78.2728 17.7101C77.7228 16.9401 76.7694 16.5551 75.4128 16.5551H68.9778C67.5844 16.5551 66.6128 16.9034 66.0628 17.6001C65.5494 18.2601 65.2928 19.0484 65.2928 19.9651V20.4051C65.2928 22.3118 64.2661 23.2651 62.2128 23.2651C60.1594 23.2651 59.1328 22.3118 59.1328 20.4051V19.9101C59.1328 18.4068 59.3894 17.1418 59.9028 16.1151C60.4528 15.0884 61.1861 14.2268 62.1028 13.5301H62.0478C63.0011 12.9068 63.9911 12.3934 65.0178 11.9901C66.0811 11.5868 67.0894 11.3851 68.0428 11.3851H76.4028C77.3194 11.3851 78.2911 11.5868 79.3178 11.9901C80.3811 12.3934 81.3711 12.9068 82.2878 13.5301H82.2328C83.1861 14.2268 83.9194 15.1434 84.4328 16.2801C84.9461 17.3801 85.2028 18.6634 85.2028 20.1301V42.1851C85.2028 43.9451 84.1944 44.8251 82.1778 44.8251C81.7744 44.8251 81.3894 44.8068 81.0228 44.7701C80.6928 44.7335 80.3811 44.6418 80.0878 44.4951C79.8311 44.3118 79.6111 44.0735 79.4278 43.7801C79.2811 43.4501 79.2078 43.0285 79.2078 42.5151L79.1528 30.4701H68.0428C67.2361 30.4701 66.6128 30.5618 66.1728 30.7451C65.7328 30.9285 65.3844 31.2218 65.1278 31.6251C64.8344 32.2485 64.6144 32.7434 64.4678 33.1101C64.3578 33.4401 64.3028 33.8251 64.3028 34.2651V36.4101C64.3028 37.3635 64.5778 38.0968 65.1278 38.6101C65.7144 39.0868 66.7044 39.3251 68.0978 39.3251H74.2578C75.6144 39.3251 76.2928 40.1868 76.2928 41.9101C76.2928 42.6435 76.1278 43.2668 75.7978 43.7801C75.4678 44.2568 74.9544 44.4951 74.2578 44.4951H67.0528ZM91.9321 16.5551C90.6121 16.5551 89.9154 15.6934 89.8421 13.9701C89.8421 12.2468 90.5388 11.3851 91.9321 11.3851H111.017C112.19 11.3851 113.107 11.5868 113.767 11.9901C114.464 12.3568 114.849 12.8701 114.922 13.5301C114.959 14.1168 114.94 14.7034 114.867 15.2901C114.83 15.8768 114.702 16.3168 114.482 16.6101L97.5971 39.3251H113.162C114.482 39.3251 115.142 40.1868 115.142 41.9101C115.215 42.7901 115.069 43.4501 114.702 43.8901C114.335 44.2935 113.822 44.4951 113.162 44.4951H93.4171C91.0338 44.4951 89.7504 43.7985 89.5671 42.4051C89.4571 41.1218 89.5854 40.0768 89.9521 39.2701L106.892 16.5551H91.9321ZM126.032 42.1851C126.032 43.9451 125.024 44.8251 123.007 44.8251C120.954 44.8251 119.927 43.9451 119.927 42.1851V13.8051C119.927 12.0451 120.954 11.1651 123.007 11.1651C125.024 11.1651 126.032 12.0451 126.032 13.8051V42.1851ZM127.187 4.23511C127.187 5.40845 126.784 6.39845 125.977 7.20512C125.17 8.01178 124.18 8.41512 123.007 8.41512C121.834 8.41512 120.825 8.01178 119.982 7.20512C119.175 6.39845 118.772 5.40845 118.772 4.23511C118.772 3.02511 119.175 2.01678 119.982 1.21011C120.825 0.403449 121.834 0.000116348 123.007 0.000116348C124.18 0.000116348 125.17 0.403449 125.977 1.21011C126.784 2.01678 127.187 3.02511 127.187 4.23511ZM171.794 42.1851C171.794 43.9451 170.785 44.8251 168.769 44.8251C166.715 44.8251 165.689 43.9451 165.689 42.1851V13.8051C165.689 12.0451 166.715 11.1651 168.769 11.1651C170.785 11.1651 171.794 12.0451 171.794 13.8051V42.1851ZM172.949 4.23511C172.949 5.40845 172.545 6.39845 171.739 7.20512C170.932 8.01178 169.942 8.41512 168.769 8.41512C167.595 8.41512 166.587 8.01178 165.744 7.20512C164.937 6.39845 164.534 5.40845 164.534 4.23511C164.534 3.02511 164.937 2.01678 165.744 1.21011C166.587 0.403449 167.595 0.000116348 168.769 0.000116348C169.942 0.000116348 170.932 0.403449 171.739 1.21011C172.545 2.01678 172.949 3.02511 172.949 4.23511ZM185.486 42.1851C185.486 43.9451 184.478 44.8251 182.461 44.8251C180.445 44.8251 179.436 43.9451 179.436 42.1851V20.0751C179.436 18.5718 179.675 17.2701 180.151 16.1701C180.628 15.0701 181.38 14.1718 182.406 13.4751C184.35 12.0818 186.293 11.3851 188.236 11.3851H197.091C198.961 11.3851 200.905 12.0818 202.921 13.4751C204.901 14.8684 205.891 17.0684 205.891 20.0751V42.1851C205.891 43.9451 204.883 44.8251 202.866 44.8251C200.85 44.8251 199.841 43.9451 199.841 42.1851V20.5701C199.841 19.6168 199.548 18.7001 198.961 17.8201L199.016 17.8751C198.54 16.9951 197.568 16.5551 196.101 16.5551H189.226C187.723 16.5551 186.733 16.9951 186.256 17.8751C185.743 18.6451 185.486 19.5434 185.486 20.5701V42.1851ZM219.056 35.3101V42.2951C219.056 44.0185 218.047 44.8801 216.031 44.8801C214.014 44.8801 213.006 44.0185 213.006 42.2951V3.13512C213.006 1.37512 214.014 0.495117 216.031 0.495117C218.047 0.495117 219.056 1.37512 219.056 3.13512V26.4551C219.972 25.3551 220.981 24.1818 222.081 22.9351C223.217 21.6518 224.336 20.3684 225.436 19.0851C226.572 17.7651 227.691 16.4818 228.791 15.2351C229.891 13.9518 230.917 12.7601 231.871 11.6601V11.7151C232.531 10.9451 233.191 10.5601 233.851 10.5601C234.217 10.5601 234.566 10.6518 234.896 10.8351C235.262 10.9818 235.647 11.2018 236.051 11.4951H235.996C236.876 12.2284 237.316 12.9618 237.316 13.6951C237.316 13.9518 237.261 14.2451 237.151 14.5751C237.041 14.8684 236.857 15.1251 236.601 15.3451L219.056 35.3101ZM237.426 40.8101C237.682 41.2868 237.811 41.7818 237.811 42.2951C237.811 43.2485 237.261 43.9635 236.161 44.4401C235.427 44.8801 234.767 45.1001 234.181 45.1001C233.777 45.1001 233.392 44.9535 233.026 44.6601C232.659 44.4035 232.366 44.0735 232.146 43.6701L226.646 33.0551C226.316 32.5051 226.151 31.9551 226.151 31.4051C226.151 30.4885 226.627 29.7185 227.581 29.0951C227.837 28.9118 228.094 28.7468 228.351 28.6001C228.644 28.4534 228.956 28.3434 229.286 28.2701C229.689 28.1968 230.074 28.2701 230.441 28.4901C230.807 28.7101 231.119 29.0034 231.376 29.3701L237.426 40.8101Z" fill="#202020"/>
<path d="M22.6046 24.6401C22.6046 22.8434 23.7046 21.9451 25.9046 21.9451C28.0679 21.9451 29.1496 22.8068 29.1496 24.5301V35.6951C29.1496 38.6651 28.1596 40.8835 26.1796 42.3501C25.2263 43.0468 24.2363 43.5968 23.2096 44.0001C22.2196 44.3668 21.2479 44.5501 20.2946 44.5501H8.85461C7.90128 44.5501 6.91128 44.3668 5.88461 44.0001C4.89461 43.5968 3.92294 43.0468 2.96961 42.3501C2.01628 41.6168 1.28294 40.7185 0.76961 39.6551C0.256276 38.5551 -0.000390314 37.2351 -0.000390314 35.6951V9.57011C-0.000390314 8.06678 0.256276 6.76511 0.76961 5.66512C1.31961 4.56511 2.05294 3.66678 2.96961 2.97011H2.91461C3.86794 2.34678 4.85794 1.83345 5.88461 1.43011C6.91128 1.02678 7.90128 0.825116 8.85461 0.825116H19.7446C20.6979 0.825116 21.6879 1.02678 22.7146 1.43011C23.7413 1.83345 24.7313 2.34678 25.6846 2.97011H25.6296C27.5729 4.40012 28.5446 6.60012 28.5446 9.57011V13.3651C28.5446 15.1251 27.4629 16.0051 25.2996 16.0051C23.1363 16.0051 22.0546 15.1251 22.0546 13.3651V10.0651C22.0546 9.14845 21.7796 8.30512 21.2296 7.53511C20.6796 6.76512 19.7263 6.38012 18.3696 6.38012H10.2846C8.89128 6.38012 7.91961 6.76512 7.36961 7.53511C6.81961 8.30512 6.54461 9.14845 6.54461 10.0651V35.2551C6.54461 35.7318 6.59961 36.1901 6.70961 36.6301C6.85628 37.0701 7.07628 37.4734 7.36961 37.8401C7.66294 38.1701 8.04794 38.4451 8.52461 38.6651C9.00128 38.8851 9.58794 38.9951 10.2846 38.9951H18.9196C20.2763 38.9951 21.2296 38.6101 21.7796 37.8401C22.3296 37.0701 22.6046 36.2085 22.6046 35.2551V24.6401ZM20.0196 24.0351C20.0196 24.6584 19.8913 25.2634 19.6346 25.8501C19.4146 26.4001 19.0846 26.8768 18.6446 27.2801C18.2413 27.6834 17.7646 28.0134 17.2146 28.2701C16.6646 28.4901 16.0596 28.6001 15.3996 28.6001C14.1529 28.6001 13.0896 28.1601 12.2096 27.2801C11.3296 26.4001 10.8896 25.3184 10.8896 24.0351C10.8896 22.7884 11.3296 21.7251 12.2096 20.8451C13.0896 19.9651 14.1529 19.5251 15.3996 19.5251C16.0596 19.5251 16.6646 19.6534 17.2146 19.9101C17.7646 20.1301 18.2413 20.4418 18.6446 20.8451C19.0846 21.2484 19.4146 21.7251 19.6346 22.2751C19.8913 22.8251 20.0196 23.4118 20.0196 24.0351ZM137.635 44.5501C136.278 44.5501 135.361 44.2018 134.885 43.5051C134.408 42.8085 134.17 42.0385 134.17 41.1951V3.19011C134.17 1.43012 135.233 0.550116 137.36 0.550116C139.56 0.550116 140.66 1.43012 140.66 3.19011V38.9951H159.03C160.35 38.9951 161.01 39.8935 161.01 41.6901C161.083 43.5968 160.423 44.5501 159.03 44.5501H137.635Z" fill="#25D366"/>
</svg>
